<?xml version="1.0" encoding="utf-8"?>
<!-- Generator: Adobe Illustrator 21.0.2, SVG Export Plug-In . SVG Version: 6.00 Build 0)  -->
<svg version="1.1" id="Слой_1" xmlns="http://www.w3.org/2000/svg" xmlns:xlink="http://www.w3.org/1999/xlink" x="0px" y="0px"
	 viewBox="0 0 32 32" style="enable-background:new 0 0 32 32;" xml:space="preserve">
<style type="text/css">
	.st0{fill:#FFFFFF;}
</style>
<path class="st0" d="M16,0C7.2,0,0,7.2,0,16c0,8.8,7.2,16,16,16c8.8,0,16-7.2,16-16S24.8,0,16,0z M16,30C8.3,30,2,23.7,2,16
	S8.3,2,16,2s14,6.3,14,14S23.7,30,16,30z"/>
<path class="st0" d="M22.7,21.3L17.5,16l5.2-5.2c0.4-0.4,0.4-1,0-1.4c-0.4-0.4-1-0.4-1.4,0L16,14.6l-5.3-5.3c-0.4-0.4-1-0.4-1.4,0
	c-0.4,0.4-0.4,1,0,1.4l5.3,5.3l-5.3,5.3c-0.4,0.4-0.4,1,0,1.4c0.4,0.4,1,0.4,1.4,0l5.3-5.3l5.3,5.3c0.4,0.4,1,0.4,1.4,0
	C23.1,22.3,23.1,21.7,22.7,21.3z"/>
</svg>
