<svg xmlns="http://www.w3.org/2000/svg" viewBox="2056.5 750 20 20">
  <defs>
    <style>
      .cls-1 {
        fill: #95989a;
      }
    </style>
  </defs>
  <g id="Group_6" data-name="Group 6" transform="translate(-66 14)">
    <path id="Path_61" data-name="Path 61" class="cls-1" d="M17,7A10,10,0,1,0,27,17,10,10,0,0,0,17,7Zm0,19.2A9.2,9.2,0,1,1,26.2,17,9.211,9.211,0,0,1,17,26.2Z" transform="translate(2115.5 729)"/>
    <path id="Path_62" data-name="Path 62" class="cls-1" d="M152.68,143.554l-.566-.566-3.96,3.96-3.941-3.941-.566.566,3.941,3.941-3.941,3.941.566.566,3.941-3.941,3.96,3.96.566-.566-3.96-3.96Z" transform="translate(1984.34 598.474)"/>
  </g>
</svg>
