<svg xmlns="http://www.w3.org/2000/svg" viewBox="1250.5 1180 15 15">
  <g id="Group_20" data-name="Group 20" transform="translate(-66 14)">
    <path id="Path_37" data-name="Path 37" d="M14.5,7A7.5,7.5,0,1,0,22,14.5,7.5,7.5,0,0,0,14.5,7Zm0,14.4a6.9,6.9,0,1,1,6.9-6.9A6.908,6.908,0,0,1,14.5,21.4Z" transform="translate(1309.5 1159)"/>
    <path id="Path_38" data-name="Path 38" d="M150.422,143.412l-.424-.424-2.97,2.97L144.072,143l-.424.424,2.956,2.956-2.956,2.956.424.424,2.956-2.956,2.97,2.97.424-.424-2.97-2.97Z" transform="translate(1176.968 1027.108)"/>
  </g>
</svg>
